<?xml version="1.0" encoding="UTF-8" standalone="no"?>
<!-- Generator: Adobe Illustrator 16.0.4, SVG Export Plug-In . SVG Version: 6.00 Build 0)  -->

<svg
   xmlns:dc="http://purl.org/dc/elements/1.1/"
   xmlns:cc="http://creativecommons.org/ns#"
   xmlns:rdf="http://www.w3.org/1999/02/22-rdf-syntax-ns#"
   xmlns:svg="http://www.w3.org/2000/svg"
   xmlns="http://www.w3.org/2000/svg"
   xmlns:sodipodi="http://sodipodi.sourceforge.net/DTD/sodipodi-0.dtd"
   xmlns:inkscape="http://www.inkscape.org/namespaces/inkscape"
   version="1.1"
   id="Capa_1"
   x="0px"
   y="0px"
   width="216px"
   height="146px"
   viewBox="0 0 216 146"
   enable-background="new 0 0 216 146"
   xml:space="preserve"
   inkscape:version="0.48.2 r9819"
   sodipodi:docname="magic.svg"><metadata
   id="metadata19"><rdf:RDF><cc:Work
       rdf:about=""><dc:format>image/svg+xml</dc:format><dc:type
         rdf:resource="http://purl.org/dc/dcmitype/StillImage" /></cc:Work></rdf:RDF></metadata><defs
   id="defs17" /><sodipodi:namedview
   pagecolor="#ffffff"
   bordercolor="#666666"
   borderopacity="1"
   objecttolerance="10"
   gridtolerance="10"
   guidetolerance="10"
   inkscape:pageopacity="0"
   inkscape:pageshadow="2"
   inkscape:window-width="1436"
   inkscape:window-height="856"
   id="namedview15"
   showgrid="false"
   inkscape:zoom="4.369863"
   inkscape:cx="67.495298"
   inkscape:cy="73"
   inkscape:window-x="4"
   inkscape:window-y="0"
   inkscape:window-maximized="1"
   inkscape:current-layer="g3" />
<g
   id="g3">
	<path
   d="M172.484,29.778c0-1.466-0.487-2.688-1.465-3.665L154.887,9.981c-0.978-0.978-2.199-1.467-3.666-1.467   s-2.688,0.489-3.666,1.467L42.781,114.755c-0.979,0.978-1.467,2.2-1.467,3.667s0.488,2.688,1.467,3.666l16.131,16.132   c0.979,0.978,2.2,1.466,3.667,1.466c1.466,0,2.688-0.487,3.666-1.466L171.02,33.445C171.997,32.466,172.484,31.245,172.484,29.778z    M136.066,53.65l-8.717-8.718l23.871-23.872l8.717,8.718L136.066,53.65z"
   id="path5" />
	<polygon
   points="59.972,27.171 62.416,19.187 70.4,16.743 62.416,14.299 59.972,6.315 57.528,14.299 49.544,16.743 57.528,19.187     "
   id="polygon7"
   style="fill:#c1c86a;fill-opacity:1" />
	<polygon
   points="81.154,37.275 86.043,53.244 90.932,37.275 106.901,32.386 90.932,27.497 86.043,11.528 81.154,27.497    65.185,32.386  "
   id="polygon9"
   style="fill:#c1c86a;fill-opacity:1" />
	<polygon
   points="166.701,66.441 164.257,58.457 161.814,66.441 153.83,68.885 161.814,71.329 164.257,79.312 166.701,71.329    174.686,68.885  "
   id="polygon11"
   style="fill:#c1c86a;fill-opacity:1" />
	<polygon
   points="112.115,27.171 114.559,19.187 122.543,16.743 114.559,14.299 112.115,6.315 109.671,14.299 101.687,16.743    109.671,19.187  "
   id="polygon13"
   style="fill:#c1c86a;fill-opacity:1" />
</g>
</svg>