<?xml version="1.0" encoding="utf-8"?>
<!-- Generator: Adobe Illustrator 17.0.0, SVG Export Plug-In . SVG Version: 6.00 Build 0)  -->
<!DOCTYPE svg PUBLIC "-//W3C//DTD SVG 1.1//EN" "http://www.w3.org/Graphics/SVG/1.1/DTD/svg11.dtd">
<svg version="1.1" id="Calque_1" xmlns="http://www.w3.org/2000/svg" xmlns:xlink="http://www.w3.org/1999/xlink" x="0px" y="0px"
	 width="512px" height="512px" viewBox="0 0 512 512" enable-background="new 0 0 512 512" xml:space="preserve">
<g id="icon">
	<g>
		
			<linearGradient id="SVGID_1_" gradientUnits="userSpaceOnUse" x1="261.1102" y1="280.9904" x2="261.1102" y2="-114.3076" gradientTransform="matrix(1 0 0 -1 123.4448 387.9131)">
			<stop  offset="0" style="stop-color:#98C360"/>
			<stop  offset="0.888" style="stop-color:#B9CF5F"/>
		</linearGradient>
		<path fill="url(#SVGID_1_)" d="M454.284,102.236c5.652,16.509,7.249,33.441,4.721,50.814
			c-2.635,17.684-9.222,33.478-19.741,47.384c-10.533,13.916-23.227,24.918-38.077,32.999c-14.86,8.099-31.026,12.891-48.517,14.385
			c-17.491,1.513-34.328-1.127-50.49-7.893c-7.531-3.007-14.667-6.765-21.437-11.285c-6.77-4.51-13.173-9.396-19.182-14.667
			c3.007,7.15,6.39,13.737,10.158,19.751c8.268,14.291,17.857,27.841,28.77,40.61c10.909,12.797,20.117,26.713,27.643,41.747
			c8.645,16.922,15.419,34.512,20.315,52.749c4.881,18.247,5.825,36.767,2.819,55.569c-3.387,18.426-10.538,35.066-21.437,49.922
			c-9.321,12.685-20.841,23.086-34.535,31.251C415.562,486.649,507.55,382.559,507.55,256.98
			C507.541,198.612,487.621,144.932,454.284,102.236z"/>
		
			<linearGradient id="SVGID_2_" gradientUnits="userSpaceOnUse" x1="182.7691" y1="381.3475" x2="182.7691" y2="296.5083" gradientTransform="matrix(1 0 0 -1 123.4448 387.9131)">
			<stop  offset="0" style="stop-color:#98C360"/>
			<stop  offset="0.888" style="stop-color:#B9CF5F"/>
		</linearGradient>
		<path fill="url(#SVGID_2_)" d="M266.075,6.377c-9.786,12.037-16.739,25.482-20.874,40.338
			c-4.144,14.855-5.839,29.992-5.078,45.411l5.078-6.211c11.651-13.906,25.567-25.191,41.747-33.844
			c16.166-8.645,33.088-14.48,50.772-17.486c11.849-1.691,23.434-1.907,34.761-0.629c-31.844-16.688-67.68-26.76-105.725-28.386
			C266.531,5.842,266.291,6.095,266.075,6.377z"/>
		
			<linearGradient id="SVGID_3_" gradientUnits="userSpaceOnUse" x1="215.819" y1="319.7512" x2="215.819" y2="174.6037" gradientTransform="matrix(1 0 0 -1 123.4448 387.9131)">
			<stop  offset="0" style="stop-color:#98C360"/>
			<stop  offset="0.888" style="stop-color:#B9CF5F"/>
		</linearGradient>
		<path fill="url(#SVGID_3_)" d="M397.799,78.586c-8.842-6.013-18.431-9.781-28.776-11.285c-10.345-1.503-21.066-1.043-32.153,1.41
			c-11.097,2.443-21.63,6.389-31.594,11.839c-9.964,5.459-18.994,12.13-27.079,20.033c-8.09,7.893-14.385,16.359-18.895,25.379
			c-2.635,5.271-4.891,11.106-6.77,17.486c4.886,10.919,10.904,20.972,18.05,30.19c7.141,9.217,15.602,17.204,25.388,23.979
			c15.039,11.275,31.308,16.922,48.794,16.922c17.491,0,33.938-5.45,49.362-16.368c7.517-4.876,13.723-10.993,18.613-18.332
			c4.886-7.329,8.466-15.231,10.721-23.687c2.255-8.466,3.007-17.12,2.255-25.952c-0.756-8.832-3.016-17.392-6.77-25.67
			C413.679,93.254,406.631,84.61,397.799,78.586z"/>
		
			<linearGradient id="SVGID_4_" gradientUnits="userSpaceOnUse" x1="36.4558" y1="375.3344" x2="36.4558" y2="-79.0281" gradientTransform="matrix(1 0 0 -1 123.4448 387.9131)">
			<stop  offset="0" style="stop-color:#98C360"/>
			<stop  offset="0.888" style="stop-color:#B9CF5F"/>
		</linearGradient>
		<path fill="url(#SVGID_4_)" d="M73.982,417.061c-6.206-16.161-10.063-32.717-11.562-49.639
			c-1.513-16.922-0.287-33.657,3.664-50.213c3.951-16.537,10.998-31.956,21.155-46.257c4.881-6.389,10.519-12.318,16.922-17.768
			c6.394-5.441,13.347-9.866,20.873-13.258c4.515-1.879,9.589-3.571,15.231-5.083c5.638-1.494,11.087-1.682,16.363-0.555
			c6.765,1.503,12.497,4.604,17.204,9.302c4.693,4.708,7.897,10.073,9.584,16.086c1.696,6.013,1.78,12.318,0.286,18.895
			c-1.513,6.587-4.895,12.328-10.157,17.204c-2.635,2.264-5.074,4.717-7.329,7.338c-2.26,2.64-4.707,5.271-7.334,7.893
			c-6.023,6.399-10.82,13.08-14.386,20.033c-3.58,6.962-5.736,15.146-6.483,24.542c-1.889,17.684,0.935,34.973,8.461,51.895
			c7.521,16.922,18.238,30.838,32.158,41.747c12.408,9.781,26.882,16.368,43.434,19.741c16.546,3.392,32.341,2.067,47.389-3.946
			c18.05-7.526,30.744-19.657,38.078-36.382c7.334-16.734,9.678-34.314,7.052-52.75c-2.636-16.922-8.283-32.341-16.927-46.257
			c-8.654-13.906-18.05-27.455-28.202-40.619c-11.665-14.291-22.001-29.419-31.026-45.411
			c-9.025-15.983-15.428-32.999-19.182-51.058c-3.012-15.785-3.387-30.829-1.132-45.13c-11.661-30.829-14.86-61.488-9.584-91.95
			c2.833-17.007,8.452-33.084,16.8-48.259C100.742,22.285,4.174,128.32,4.174,256.98c0,73.863,31.82,140.303,82.502,186.343
			C81.823,435.036,77.538,426.326,73.982,417.061z"/>
	</g>
</g>
</svg>
