<?xml version="1.0" encoding="utf-8"?>
<!-- Generator: Adobe Illustrator 17.0.0, SVG Export Plug-In . SVG Version: 6.00 Build 0)  -->
<!DOCTYPE svg PUBLIC "-//W3C//DTD SVG 1.1//EN" "http://www.w3.org/Graphics/SVG/1.1/DTD/svg11.dtd">
<svg version="1.1" id="Calque_1" xmlns="http://www.w3.org/2000/svg" xmlns:xlink="http://www.w3.org/1999/xlink" x="0px" y="0px"
	 width="1280px" height="800px" viewBox="0 0 1280 800" enable-background="new 0 0 1280 800" xml:space="preserve">
<g id="shadow">
	<g>
		<g>
			<path fill="#2B4A1D" d="M142.287,460.018c-3.153,2.734-6.318,5.697-9.118,8.9c-2.806,3.208-5.955,6.414-9.118,9.591
				c-7.488,7.514-13.445,15.899-17.887,24.442c-4.445,8.556-6.999,18.867-8.068,30.461c-2.044,22.151,1.653,45.168,10.506,65.722
				c8.984,20.849,22.565,39.871,39.957,54.658c15.579,13.25,34.218,22.651,53.994,27.698c20.54,5.241,40.289,4.556,58.924-2.346
				c21.122-7.818,38.425-23.792,47.371-44.559c9.049-21.004,12.084-44.397,8.788-67.024c-3.052-20.96-10.172-41.374-21.034-59.606
				c-10.794-18.119-22.473-36.109-35.067-52.692c-13.991-18.42-27.341-38.147-38.57-58.722
				c-11.141-20.418-19.425-42.633-23.834-65.296c-3.869-19.902-0.322-43.148-1.389-57.183
				c-2.363-31.105-18.633-76.282-11.897-116.555c3.77-22.549,11.494-44.55,22.817-64.485c11.414-20.098,26.489-38.165,43.861-53.24
				c3.266-2.832,6.547-5.018,9.824-6.455c3.266-1.432,7.253-1.676,11.928-0.716c4.665,0.957,8.423,3.12,11.222,6.467
				c2.808,3.353,5.184,7.84,5.61,12.224c0.67,6.896-3.302,14.623-9.828,20.106c-8.561,7.192-16.831,15.391-23.859,24.333
				c-11.985,15.239-20.822,32.282-25.972,51.089c-5.15,18.822-7.265,37.997-6.331,57.572c2.529-3.119,3.791-4.679,6.318-7.801
				c14.375-17.373,32.118-31.846,51.925-42.555c19.677-10.639,41.328-18.52,63.152-21.926c19.33-3.017,38.707-2.228,57.18,1.703
				c18.467,3.93,35.72,12.91,50.856,26.983c16.379,15.227,28.696,35.061,36.117,56.318c7.562,21.663,9.876,45.086,6.654,67.826
				c-3.1,21.864-11.479,42.898-24.563,60.706c-12.571,17.112-28.709,31.609-47.365,41.847
				c-18.545,10.178-39.306,16.039-60.352,17.515c-21.46,1.503-43.273-2.661-62.797-11.288c-9.23-4.08-18.24-9.014-26.657-14.94
				c-8.419-5.927-23.848-19.177-23.848-19.177c-0.2,0.138,8.15,17.691,12.619,25.391c10.475,18.044,22.357,36.13,35.768,52.558
				c13.539,16.581,25.443,34.923,34.367,54.092c10.275,22.065,18.761,44.682,25.245,68.043c6.301,22.704,7.4,47.749,3.491,71.171
				c-3.76,22.531-13.063,44.38-26.684,62.997c-13.449,18.381-31.765,33.046-51.938,42.99c-19.421,9.574-41.217,15.377-63.141,15.669
				c-21.874,0.29-43.75-3.117-64.519-9.996c-21.359-7.076-41.484-17.709-59.587-31.007c-18.499-13.592-34.888-30.135-48.356-48.695
				c-12.643-17.419-22.933-36.657-30.48-56.834c-7.52-20.105-12.453-41.242-14.365-62.645c-1.859-20.808-0.347-41.894,4.556-62.214
				c4.909-20.341,13.859-40.064,26.289-56.446c5.837-7.692,13.081-14.844,21.036-21.367c7.942-6.513,16.671-11.936,25.945-15.665
				c5.499-2.209,11.926-4.08,18.935-5.736c7.007-1.656,13.819-1.703,20.339-0.058c8.389,2.116,15.547,6.287,21.387,12.391
				c5.839,6.104,9.82,13.002,11.92,20.655c2.105,7.661,2.214,15.63,0.345,23.862C153.044,447.003,148.813,454.359,142.287,460.018z
				 M294.54,339.637c17.131,13.115,38.522,22.278,60.686,22.644c22.08,0.363,43.756-7.842,61.406-20.1
				c8.963-6.223,17.079-13.918,23.157-23.267c6.077-9.345,10.527-19.45,13.334-30.29c2.808-10.841,3.747-21.942,2.811-33.295
				c-0.933-11.341-3.712-22.435-8.412-33.004c-6.436-14.48-15.318-25.68-26.3-33.453c-10.985-7.775-22.929-12.671-35.781-14.673
				c-12.863-2.003-26.207-1.487-39.994,1.538c-13.8,3.029-26.909,7.971-39.295,14.808c-12.401,6.844-23.628,15.241-33.683,25.174
				c-10.061,9.937-17.896,20.595-23.51,31.985c-3.281,6.652-8.78,16.587-8.425,22.091c0.645,10.04,13.562,26.873,22.439,38.748
				C271.855,320.417,282.889,330.717,294.54,339.637z"/>
			<path fill="#2B4A1D" d="M573.061,641.067c-6.087-0.042-11.235-0.933-15.438-2.659c-4.207-1.731-7.732-3.949-10.527-6.263
				c-8.921-7.389-15.071-18.085-16.138-31.366c-0.643-8.025,0.945-19.032,4.917-31.155c2.947-8.995,7.486-18.802,12.634-28.922
				c5.146-10.116,10.252-20.115,15.44-29.654c5.493-10.094,10.992-20.142,16.144-30.046c5.144-9.889,9.29-18.952,11.227-26.459
				c1.067-4.132,1.519-7.625,1.756-9.798c0.233-2.172,0.349-3.742,0.349-4.719c0-0.475-0.739-1.365-2.105-2.185
				c-0.844-0.505-2.697-1.098-5.264-1.835c-2.575-0.735-6.671-0.142-12.279,1.767c-11.221,3.815-24.414,12.577-39.295,26.255
				c-17.331,15.927-32.641,33.899-47.02,52.113c-13.96,17.68-26.932,37.025-38.602,56.662
				c-10.777,18.134-18.721,33.195-23.865,45.138c-0.842,1.718-1.264,2.575-2.107,4.293c-2.338,5.264-6.2,8.906-11.582,10.952
				c-5.375,2.042-10.639,1.792-15.791-0.744c-5.14-2.529-8.885-6.604-11.225-12.203c-2.336-5.587-2.334-11.006,0.004-16.253
				c0.842-2,1.264-3.004,2.105-5.005c19.891-45.901,40.234-91.664,62.835-136.241c15.903-31.362,31.769-63.446,48.777-93.674
				c10.989-19.536,22.817-39.436,35.086-58.529c8.358-13.006,12.527-19.941,12.63-20.263c1.367-4.316,8.425-8.433,14.033-9.385
				c5.604-0.95,10.811,0.972,15.434,4.403c4.686,3.479,8.181,8.014,9.12,13.819c0.935,5.808-2.882,12.086-4.209,15.965
				c-0.109,0.311-4.173,7.028-12.279,19.564c-12.012,18.575-22.972,37.935-34.033,57.172c-6.457,12.15-9.685,18.222-16.14,30.357
				c14.495-11.967,28.879-20.295,42.801-25.123c12.113-4.201,22.563-5.713,31.223-4.236c8.65,1.478,15.575,4.051,20.698,7.311
				c12.319,7.842,19.389,19.119,21.75,31.981c1.804,9.81,1.405,21.795-2.806,34.863c-3.275,10.165-7.608,20.948-12.983,32.306
				c-5.381,11.374-11.863,22.763-17.894,33.728c-4.323,7.857-8.311,15.953-12.283,23.19c-3.972,7.242-7.011,14.524-9.473,21.01
				c-2.523,6.644-4.449,11.598-4.915,14.493c-0.464,2.897-0.865,5.641-0.702,5.805c0.292,0.295,4.321-0.817,8.772-2.488
				c4.436-1.668,10.765-5.605,17.898-11.901c19.232-16.977,34.819-40.483,45.615-63.844c2.39-5.175,6.318-8.965,11.93-10.904
				c5.606-1.94,10.996-1.714,16.14,0.694c5.14,2.405,8.66,6.516,10.525,12.314c1.867,5.792,1.193,11.448-1.401,16.708
				c-11.767,23.855-26.602,48.24-45.264,67.99c-14.228,15.058-33.502,27.283-52.288,33.622c-2.256,0.76-4.331,1.424-5.963,1.416
				C577.382,641.094,575.397,641.081,573.061,641.067z"/>
			<path fill="#2B4A1D" d="M693.769,636.792c-9.364,0.052-19.024-2.485-28.072-7.877c-15.312-9.122-24.273-24.342-27.373-42.82
				c-2.477-14.773-1.424-32.234,4.211-51.571c4.653-15.966,11.813-32.566,21.404-49.777c9.584-17.196,20.452-32.891,32.626-46.939
				c13.042-15.047,25.997-26.915,38.589-35.037c15.211-9.814,30.973-15.054,45.605-14.84c22.019,0.323,44.477,9.529,60.34,25.441
				c5.614,5.633,9.359,10.372,11.227,13.962c1.867,3.585,4.354,7.413,6.32,11.122c2.995,5.654,3.043,11.894,0.706,16.989
				c-2.342,5.1-5.86,8.899-10.525,11.378c-4.678,2.489-9.822,3.044-15.434,1.675c-5.614-1.367-10.065-5.654-13.334-12.856
				c-0.561-0.571-0.842-0.858-1.403-1.429c-0.282,0.004-0.422,0.006-0.702,0.008c-0.945-1.912-3.474-5.978-7.719-10.772
				c-6.312-7.13-17.78-11.649-30.874-11.997c-6.318-0.168-14.508,3.282-23.855,9.638c-9.362,6.362-18.713,15.021-28.062,25.964
				c-9.355,10.949-18.129,23.345-26.31,37.176c-8.183,13.835-14.222,28.32-18.593,42.561c-0.882,2.878-1.756,6.428-2.458,10.539
				c-0.699,4.121-1.05,8.481-1.05,13.075c0,4.606,0.59,8.842,1.754,12.703c1.166,3.87,4.1,6.664,6.669,8.687
				c0.911,0.718,2.462,1.562,4.56,1.794c2.1,0.232,4.619-0.247,7.37-1.127c4.945-1.585,12.508-6.122,22.103-13.94
				c9.582-7.807,22.876-23.141,36.836-45.318c3.804-6.042,7.368-12.287,10.876-17.885c3.504-5.589,6.43-10.825,8.769-15.688
				c1.863-3.877,3.621-7.53,5.26-10.935c1.634-3.389,3.966-6.884,5.963-10.217c3.424-5.716,8.879-9.999,16.837-11.068
				c1.122-0.013,1.682-0.021,2.806-0.035c0.933,0.476,2.107,0.699,3.508,0.681c1.403-0.018,2.567,0.454,3.508,1.404
				c0.279-0.004,0.422-0.006,0.701-0.008c0,0.486,0.786,0.513,1.405,0.706c3.772,1.176,7.532,7.771,9.124,12.189
				c1.495,4.153,1.634,9.876-0.699,16.666c-4.77,8.761-7.154,13.143-11.924,21.904c-6.083,14.101-10.288,27.688-12.624,40.761
				c-2.338,13.077-1.972,23.429,0.004,30.438c0.517,1.835,0.941,3.134,1.405,3.603c0.462,0.471,0.95,1.099,1.403,1.427
				c0.714,0.517,1.995,0.814,3.159,1.038c1.157,0.222,2.991-0.133,5.262-1.173c5.081-2.326,11.111-7.43,17.892-14.793
				c6.776-7.356,14.065-16.746,20.694-27.883c6.165-10.36,10.899-19.3,14.031-25.584c1.895-3.801,3.842-7.816,5.612-11.676
				c2.386-5.204,6.314-9.157,11.926-11.435c5.615-2.277,10.998-2.264,16.142,0.037c5.142,2.297,8.778,6.202,10.882,11.679
				c2.107,5.489,0.611,11.982-0.347,16.973c-0.073,0.384-2.109,4.865-6.314,13.141c-4.209,8.285-9.435,18.697-16.136,29.265
				c-14.697,23.183-32.899,47.984-59.638,59.856c-6.507,2.888-12.874,4.587-18.948,4.692c-7.956,0.139-15.15-1.949-21.053-4.73
				c-11.649-5.493-20.847-17.182-26.671-31.557c-0.744-1.836-1.405-3.608-1.405-5.06c-0.842,0.88-1.262,1.321-2.105,2.199
				c-15.909,16.14-31.225,26.646-45.613,31.637C706.422,635.71,700.316,636.756,693.769,636.792z M818.655,454.215l0.699,1.439
				L818.655,454.215z"/>
			<path fill="#2B4A1D" d="M949.91,632.77c-11.227,0.355-22.187-0.899-32.28-4.083c-18.534-5.848-32.408-18.127-40.36-35.458
				c-9.032-19.678-9.62-42.944-6.681-63.846c1.122-7.975,2.689-16.437,5.259-24.683c2.565-8.233,5.862-16.54,9.467-24.754
				c7.125-16.224,16.507-31.437,26.657-44.555c12.254-15.84,25.134-29.082,38.934-37.518c13.787-8.429,27.472-12.778,41.043-13.064
				c10.756-0.228,20.198,2.886,28.066,7.992c7.969,5.173,14.388,12.802,18.246,22.496c4.842,12.166,5.104,25.789,0.712,40.111
				c-4.35,14.185-12.865,28.843-25.947,41.641c-4.052,3.964-9.242,6.018-15.083,6.186c-5.854,0.167-10.637-2.093-14.384-6.068
				c-3.959-4.194-6.201-9.302-5.967-15.305c0.233-5.99,2.68-10.963,6.658-14.916c7.478-7.423,12.159-14.803,14.029-20.844
				c1.865-6.027,1.821-10.834,0.697-14.028c-1.075-3.059-3.279-4.952-7.02-4.862c-7.015,0.166-14.623,3.222-22.798,9.161
				c-8.183,5.944-16.22,14.539-24.201,25.029c-8.162,10.726-15.43,22.69-21.042,35.801c-5.612,13.112-9.542,26.021-11.92,38.518
				c-0.918,4.822-1.401,9.903-1.401,15.194c0.002,5.301,0.592,10.346,1.758,15.116c1.168,4.78,3.283,9.066,6.32,12.832
				c3.039,3.767,7.194,6.686,12.283,8.331c31.141,10.068,57.603-8.872,78.578-28.292c11.193-10.363,19.874-22.194,25.949-32.431
				c6.072-10.231,9.475-15.611,9.819-16.091c3.027-4.237,6.894-8.819,12.275-10.432c5.367-1.608,10.633-1.073,15.783,1.607
				c5.14,2.678,8.536,6.737,10.172,12.142c1.638,5.412,1.611,12.099-1.048,16.112c-0.313,0.473-1.752,2.566-3.856,6.221
				c-2.102,3.654-5.028,8.298-8.763,13.915c-3.745,5.629-8.185,11.881-13.323,18.752c-5.148,6.884-11.683,13.554-18.236,20.031
				c-7.957,7.867-16.131,15.665-24.548,21.716c-8.417,6.051-17.159,11.113-25.955,14.583
				C975.439,629.9,962.542,632.371,949.91,632.77z"/>
			<path fill="#2B4A1D" d="M1137.196,628.611c-15.428,0.786-31.305-1.184-46.987-6.28c-18.585-6.037-32.305-18.475-39.993-36.211
				c-9.425-21.747-8.042-43.488-4.928-65.71c2.159-15.376,7.709-31.65,14.722-47.377c7.007-15.719,16.312-30.474,26.644-44.078
				c18.759-24.702,45.758-47.614,78.542-48.715c12.13-0.406,21.981,1.185,29.457,4.704c7.469,3.516,13.079,7.382,16.831,11.429
				c10.126,10.927,15.428,24.593,15.43,41.047c0.002,11.758-2.453,23.851-7.358,36.298c-4.909,12.456-11.777,24.579-20.679,35.557
				c-9.519,11.739-20.425,20.982-31.547,27.663c-12.592,7.565-27.005,11.152-40.669,12.477c-8.467,0.82-18.704-0.622-29.454-5.897
				c-4.772-2.949-7.156-4.424-11.926-7.384c-0.943,5.283-1.05,10.285-0.347,15.013c0.704,4.737,1.376,9.24,2.458,12.756
				c2.645,8.597,9.162,14.945,17.541,17.812c16.201,5.545,31.563,6.512,45.584,3.228c14.014-3.284,26.642-9.128,37.858-17.486
				c11.214-8.359,20.908-18.155,29.089-29.402c8.169-11.236,14.258-22.391,18.574-32.665c2.193-5.223,6.066-9.337,11.212-12.168
				c5.134-2.824,10.649-3.265,16.123-1.148c5.079,1.965,9,5.759,11.565,10.993c2.567,5.239,2.617,10.526,0.351,15.77
				c-7.568,17.499-17.177,34.065-29.087,49.045c-11.914,14.988-25.363,27.402-40.299,37.188
				c-17.291,11.328-36.052,18.213-53.979,22.069c-2.281,0.49-4.797,0.96-7.362,1.092
				C1141.983,628.365,1139.53,628.489,1137.196,628.611z M1107.708,471.078c-0.097,0.331-0.521,1.705-1.403,3.616
				c-2.392,5.185-3.266,9.638-2.802,12.937c0.466,3.308,1.115,6.081,2.106,7.77c2.391,4.074,6.312,7.251,10.521,9.225
				c4.209,1.974,7.246,2.921,9.118,2.847c0.279-0.011,0.42-0.017,0.702-0.028c9.817-0.389,18.112-3.456,24.894-9.183
				c6.772-5.717,12.101-10.797,15.774-15.201c5.619-6.734,10.055-14.241,13.321-22.162c3.266-7.918,4.907-15.181,4.907-21.797
				c0-2.357-0.237-4.714-0.704-7.054c-0.464-2.334-1.414-4.357-2.806-5.562c-2.105-1.816-5.033-3.005-8.066-3.605
				c-3.046-0.6-5.73-0.858-8.066-0.776c-14.497,0.511-29.915,11.505-46.281,32.908
				C1115.192,459.888,1109.098,466.316,1107.708,471.078z"/>
		</g>
	</g>
</g>
<g id="text">
	<g>
		
			<linearGradient id="SVGID_1_" gradientUnits="userSpaceOnUse" x1="128.6931" y1="639.6365" x2="128.6931" y2="-65.9546" gradientTransform="matrix(1 0 0 -1 123.4448 675.9131)">
			<stop  offset="0" style="stop-color:#98C360"/>
			<stop  offset="0.888" style="stop-color:#B9CF5F"/>
		</linearGradient>
		<path fill="url(#SVGID_1_)" d="M491.717,207.43c-7.717-21.276-19.763-39.395-36.128-54.367
			c-15.432-13.559-32.389-22.208-50.858-25.954c-18.482-3.739-37.533-4.209-57.174-1.405c-21.99,3.749-43.036,10.996-63.137,21.748
			c-20.112,10.765-37.419,24.795-51.913,42.092l-6.314,7.717c-0.941-19.171,1.161-37.993,6.314-56.473
			c5.14-18.471,13.79-35.185,25.957-50.157c7.013-8.88,14.959-16.835,23.851-23.851c6.545-5.611,9.822-12.156,9.822-19.641
			c-0.941-4.669-2.806-8.649-5.61-11.926c-2.808-3.267-6.558-5.371-11.227-6.313c-4.68-0.932-8.658-0.701-11.926,0.702
			c-3.274,1.404-6.553,3.508-9.82,6.313c-17.78,14.972-32.391,32.389-43.845,52.263c-11.466,19.883-19.062,41.039-22.798,63.487
			c-6.555,37.88-2.577,76.005,11.924,114.345c-2.804,17.779-2.346,36.478,1.405,56.121c4.669,22.448,12.628,43.612,23.85,63.487
			c11.223,19.884,24.082,38.704,38.583,56.472c12.626,16.374,24.313,33.211,35.075,50.508c10.752,17.308,17.77,36.478,21.047,57.523
			c3.266,22.919,0.351,44.789-8.769,65.593c-9.12,20.803-24.905,35.886-47.352,45.246c-18.711,7.475-38.354,9.12-58.928,4.911
			c-20.586-4.209-38.583-12.395-54.017-24.554c-17.308-13.569-30.637-30.864-39.986-51.907
			c-9.36-21.047-12.869-42.551-10.523-64.541c0.93-11.684,3.617-21.856,8.068-30.514c4.438-8.649,10.401-16.947,17.887-24.905
			c3.266-3.266,6.314-6.545,9.12-9.823c2.804-3.267,5.841-6.313,9.12-9.119c6.545-6.072,10.752-13.209,12.628-21.395
			c1.863-8.177,1.752-16.015-0.351-23.5c-2.107-7.477-6.085-14.14-11.926-19.992c-5.854-5.842-12.978-9.701-21.397-11.574
			c-6.556-1.404-13.329-1.161-20.345,0.702c-7.013,1.874-13.329,3.979-18.94,6.313c-9.362,4.209-18.009,9.712-25.957,16.487
			c-7.959,6.785-14.974,14.151-21.047,22.098c-12.628,17.779-21.397,36.95-26.306,57.525c-4.911,20.585-6.436,41.388-4.56,62.433
			c1.863,21.046,6.662,41.632,14.38,61.735c7.715,20.101,17.89,38.346,30.517,54.719c13.558,17.772,29.694,32.849,48.405,45.25
			c18.698,12.384,38.581,21.395,59.627,27.003c21.047,5.617,42.553,7.721,64.538,6.314c21.979-1.399,43.021-7.484,63.137-18.238
			c21.044-10.765,38.341-25.373,51.91-43.843c13.558-18.48,22.45-39.175,26.659-62.085c3.737-23.379,2.564-46.408-3.51-69.098
			c-6.085-22.679-14.499-44.546-25.254-65.593c-9.362-18.699-20.817-36.005-34.376-51.91c-13.569-15.895-25.497-32.73-35.777-50.508
			c-4.68-7.477-8.889-15.665-12.628-24.552c7.476,6.553,15.432,12.628,23.851,18.239c8.417,5.611,17.297,10.292,26.657,14.03
			c20.103,8.418,41.038,11.696,62.786,9.821c21.748-1.862,41.849-7.825,60.331-17.888c18.471-10.051,34.256-23.733,47.353-41.038
			c13.088-17.297,21.275-36.938,24.552-58.927C501.646,250.574,499.434,228.717,491.717,207.43z M454.186,276.881
			c-2.808,10.522-7.257,20.343-13.329,29.463c-6.085,9.119-13.8,16.727-23.151,22.799c-19.181,13.569-39.635,20.345-61.381,20.345
			c-21.748,0-41.984-7.014-60.682-21.047c-12.166-8.418-22.689-18.349-31.567-29.814c-8.889-11.453-16.377-23.96-22.447-37.532
			c2.333-7.947,5.14-15.191,8.418-21.747c5.61-11.224,13.439-21.748,23.5-31.569c10.051-9.821,21.275-18.118,33.674-24.905
			c12.386-6.775,25.485-11.684,39.284-14.731c13.789-3.036,27.119-3.617,39.986-1.753c12.859,1.874,24.783,6.555,35.779,14.03
			c10.983,7.488,19.753,18.24,26.306,32.27c4.669,10.293,7.477,20.936,8.418,31.918
			C457.923,255.605,456.992,266.357,454.186,276.881z"/>
		
			<linearGradient id="SVGID_2_" gradientUnits="userSpaceOnUse" x1="696.5748" y1="639.0872" x2="696.5748" y2="-65.5383" gradientTransform="matrix(1 0 0 -1 123.4448 675.9131)">
			<stop  offset="0" style="stop-color:#98C360"/>
			<stop  offset="0.888" style="stop-color:#B9CF5F"/>
		</linearGradient>
		<path fill="url(#SVGID_2_)" d="M820.369,438.581c-0.471,0-0.699-0.461-0.699-1.405"/>
		
			<linearGradient id="SVGID_3_" gradientUnits="userSpaceOnUse" x1="707.3964" y1="639.6369" x2="707.3964" y2="-65.9556" gradientTransform="matrix(1 0 0 -1 123.4448 675.9131)">
			<stop  offset="0" style="stop-color:#98C360"/>
			<stop  offset="0.888" style="stop-color:#B9CF5F"/>
		</linearGradient>
		<path fill="url(#SVGID_3_)" d="M1275.985,499.26c-2.579-5.371-6.436-9.229-11.573-11.574c-5.612-2.333-10.996-2.214-16.14,0.35
			c-5.151,2.575-8.887,6.436-11.221,11.575c-4.209,10.291-10.412,20.813-18.591,31.57c-8.19,10.763-17.887,19.992-29.112,27.71
			c-11.225,7.717-23.851,12.868-37.881,15.434c-14.029,2.574-29.234,0.819-45.597-5.263c-8.416-3.267-14.275-9.35-17.536-18.239
			c-0.943-3.737-1.756-7.948-2.459-12.628c-0.698-4.669-0.59-9.578,0.353-14.731l11.924,7.717
			c10.754,5.612,20.576,7.959,29.465,7.014c14.493,0,28.058-3.509,40.69-10.522c11.221-6.074,21.748-14.731,31.565-25.956
			c8.879-10.752,15.785-22.206,20.696-34.375c4.913-12.157,7.368-24.082,7.368-35.778c0-16.364-5.155-30.164-15.436-41.388
			c-3.749-4.209-9.359-8.178-16.837-11.927c-7.484-3.736-17.308-5.611-29.461-5.611c-28.535,0-54.719,15.204-78.571,45.599
			c-10.763,13.098-19.641,27.249-26.657,42.44c-4.844,10.496-8.66,21.048-11.498,31.652c-1.21,1.295-2.292,2.773-3.222,4.476
			c-0.473,0.471-3.751,5.611-9.822,15.432c-6.083,9.824-14.732,20.115-25.957,30.867c-26.657,25.256-52.853,33.674-78.569,25.256
			c-5.152-1.863-9.242-4.669-12.277-8.417c-3.048-3.738-5.152-7.947-6.314-12.628c-1.172-4.669-1.754-9.58-1.754-14.731
			c0-5.141,0.46-10.054,1.403-14.731c2.336-12.154,6.312-24.552,11.924-37.18c5.612-12.628,12.628-24.081,21.047-34.375
			c7.946-10.284,16.012-18.241,24.201-23.853c8.177-5.612,15.785-8.417,22.798-8.417c3.737,0,6.073,1.646,7.013,4.91
			c1.403,3.279,1.161,7.838-0.702,13.68c-1.874,5.852-6.556,12.52-14.031,19.992c-4.209,3.748-6.434,8.541-6.665,14.383
			c-0.242,5.852,1.754,10.872,5.963,15.081c3.737,4.209,8.526,6.313,14.382,6.313c5.841,0,10.874-1.862,15.081-5.611
			c13.09-12.628,21.748-25.954,25.957-39.984c4.669-14.032,4.438-27.118-0.704-39.288c-3.747-9.821-9.819-17.297-18.24-22.449
			c-7.956-5.611-17.308-8.418-28.06-8.418c-13.569,0-27.249,3.979-41.039,11.926c-13.8,7.959-26.776,19.885-38.934,35.778
			c-10.763,12.627-19.643,26.896-26.657,42.791c-3.751,7.958-6.906,15.906-9.471,23.851c-0.88,2.721-1.628,5.439-2.313,8.156
			c-0.857,1.155-1.613,2.401-2.237,3.77c-1.876,3.749-3.751,7.485-5.617,11.222c-3.275,6.084-7.956,14.272-14.029,24.553
			c-7.015,10.764-13.922,19.642-20.694,26.658c-6.786,7.015-12.752,11.694-17.889,14.031c-2.346,0.942-4.102,1.294-5.26,1.051
			c-1.176-0.23-2.226-0.581-3.159-1.051c-0.471-0.461-0.939-0.929-1.399-1.403c-0.473-0.458-0.947-1.632-1.405-3.508
			c-2.346-7.014-2.346-16.837,0-29.465c2.333-12.627,6.545-25.713,12.63-39.283l11.924-21.044
			c2.334-6.545,2.562-11.926,0.699-16.134c-1.401-4.671-4.451-8.649-9.12-11.926c-0.941,0-1.401-0.23-1.401-0.704h-0.706
			c-0.939-0.93-2.105-1.402-3.503-1.402c-1.403,0-2.573-0.23-3.51-0.699h-2.804c-7.956,0.94-13.571,4.451-16.835,10.522
			c-2.346,3.278-4.329,6.556-5.965,9.818c-1.644,3.278-3.394,6.787-5.257,10.524c-2.346,4.681-5.259,9.712-8.769,15.082
			c-3.51,5.384-7.135,11.116-10.874,17.187c-14.97,21.517-27.249,36.016-36.829,43.495c-9.59,7.485-16.957,11.924-22.099,13.328
			c-2.806,0.94-5.262,1.293-7.366,1.05c-2.107-0.23-3.63-0.809-4.56-1.753c-3.279-1.865-5.503-4.67-6.665-8.417
			c-1.174-3.741-1.754-7.827-1.754-12.277c0-4.439,0.351-8.649,1.052-12.628c0.702-3.971,1.512-7.366,2.453-10.171
			c4.209-14.03,10.404-27.709,18.591-41.038c8.177-13.328,16.949-25.253,26.306-35.775c9.351-10.524,18.7-18.82,28.06-24.905
			c9.351-6.071,17.299-9.119,23.848-9.119c13.56,0.941,23.857,4.91,30.87,11.926c4.209,5.151,6.774,8.659,7.715,10.521h0.706
			l1.399,1.405c3.27,7.014,7.719,11.225,13.33,12.628c5.617,1.402,10.754,0.942,15.434-1.403c4.669-2.334,8.175-5.964,10.521-10.874
			c2.333-4.911,2.105-10.401-0.699-16.486c-2.344-3.737-4.451-7.365-6.316-10.873c-1.867-3.508-5.608-8.068-11.225-13.679
			c-15.904-15.433-36.014-23.851-60.327-25.256c-14.976,0-30.164,4.681-45.599,14.03c-12.626,7.959-25.493,19.181-38.581,33.674
			c-12.168,13.57-23.04,28.651-32.62,45.245c-5.209,9.021-9.666,17.861-13.424,26.534c-2.174,1.811-3.92,4.052-5.163,6.79
			c-13.098,25.724-28.299,46.299-45.596,61.734c-7.488,6.083-13.449,9.939-17.889,11.573c-4.451,1.643-7.366,2.454-8.769,2.454
			c0-0.932,0.231-2.807,0.701-5.611c0.46-2.805,2.107-7.477,4.911-14.03c2.334-6.546,5.491-13.329,9.469-20.346
			c3.97-7.013,8.068-14.49,12.277-22.447c6.543-10.752,12.508-21.627,17.89-32.62c5.371-10.985,9.7-21.397,12.979-31.22
			c4.209-12.626,5.14-23.851,2.806-33.672c-1.876-13.088-9.12-23.379-21.748-30.867c-5.15-3.266-12.046-5.611-20.694-7.013
			c-8.66-1.404-19.062,0-31.219,4.209c-14.029,4.68-28.304,12.869-42.792,24.552l16.133-29.465
			c14.489-24.782,25.836-43.251,34.023-55.418c8.179-12.157,12.275-18.472,12.275-18.943c3.739-4.67,5.142-9.821,4.209-15.433
			c-0.941-5.611-3.976-10.051-9.116-13.328c-4.684-3.738-9.824-5.141-15.434-4.209c-5.61,0.942-10.29,3.979-14.029,9.119
			c0,0.471-4.209,7.014-12.628,19.642c-8.418,12.628-20.114,31.567-35.075,56.821c-13.1,23.391-29.356,53.786-48.758,91.198
			c-19.41,37.423-40.337,81.849-62.784,133.289l-2.105,4.91c-2.333,5.151-2.333,10.413,0,15.784
			c2.348,5.381,6.083,9.242,11.225,11.576c5.15,2.333,10.414,2.455,15.785,0.351c5.381-2.105,9.24-5.722,11.573-10.872l2.105-4.21
			c5.142-11.684,13.088-26.417,23.853-44.196c10.752-17.767,23.609-36.236,38.581-55.419c16.367-20.575,32.027-37.533,46.999-50.861
			c14.964-13.329,28.062-21.857,39.287-25.604c5.612-1.864,9.7-2.455,12.277-1.753c2.565,0.702,4.318,1.293,5.262,1.753
			c1.401,0.943,2.102,1.644,2.102,2.104c0,0.942-0.12,2.457-0.351,4.56c-0.239,2.106-0.823,5.264-1.752,9.47
			c-2.348,7.488-6.085,16.026-11.227,25.604c-5.15,9.593-10.521,19.29-16.133,29.114c-5.15,9.361-10.292,18.938-15.432,28.761
			c-5.15,9.823-9.36,19.183-12.628,28.062c-3.749,12.165-5.384,22.219-4.911,30.163c1.405,13.096,6.776,23.149,16.133,30.164
			c2.808,2.344,6.314,4.318,10.525,5.963c4.209,1.632,9.349,2.455,15.432,2.455c2.334,0,4.316,0,5.963,0
			c1.632,0,3.617-0.475,5.963-1.407c17.297-4.205,34.724-15.081,52.261-32.619c1.663-1.663,3.285-3.402,4.904-5.144
			c4.56,11.384,12.361,20.491,23.502,27.244c9.351,5.152,18.7,7.717,28.06,7.717c6.543,0,12.628-0.933,18.24-2.806
			c14.489-4.671,29.694-14.731,45.599-30.168l2.105-2.106c0,1.404,0.458,3.048,1.401,4.913
			c5.144,15.432,14.035,25.724,26.659,30.868c6.074,3.264,13.09,4.909,21.044,4.909c6.074,0,12.388-1.401,18.946-4.209
			c16.213-5.791,32.591-19.736,49.129-41.786c0.116,0.245,0.2,0.505,0.315,0.748c8.177,17.078,21.628,28.883,40.337,35.428
			c10.282,3.277,21.044,4.911,32.269,4.911c12.628,0,25.256-2.105,37.882-6.314c8.878-3.268,17.541-7.717,25.957-13.329
			c8.417-5.609,16.594-12.384,24.552-20.343c3.317-2.871,6.402-5.796,9.299-8.774c0.779,2.278,1.649,4.502,2.617,6.67
			c7.946,17.777,21.275,30.163,39.986,37.179c15.894,5.612,31.568,8.423,47,8.423c2.334,0,4.791,0,7.366,0
			c2.565,0,5.02-0.244,7.366-0.706c18.698-2.344,36.707-8.645,54.015-18.937c14.961-8.879,28.413-20.455,40.341-34.728
			c11.924-14.259,21.624-30.044,29.11-47.351C1278.669,509.902,1278.549,504.644,1275.985,499.26z M1107.269,463.833
			c0.931-1.864,1.403-3.036,1.403-3.508c3.739-5.611,7.476-10.754,11.225-15.434c16.367-20.574,31.799-30.865,46.302-30.865
			c2.333,0,5.02,0.351,8.068,1.051c3.033,0.702,5.72,1.994,8.068,3.856c1.401,1.405,2.334,3.278,2.804,5.611
			c0.462,2.347,0.704,4.681,0.704,7.014c0,6.556-1.647,13.681-4.911,21.396c-3.279,7.718-7.717,14.852-13.33,21.397
			c-3.749,4.209-9.009,9.01-15.785,14.383c-6.786,5.379-15.081,8.068-24.905,8.068h-0.699c-1.876,0-4.911-1.051-9.118-3.157
			c-4.209-2.106-7.717-5.264-10.523-9.471c-0.941-1.864-1.645-4.439-2.105-7.717C1103.99,473.194,1104.925,468.984,1107.269,463.833
			z"/>
	</g>
</g>
</svg>
